<?xml version="1.0" encoding="UTF-8" standalone="no"?>
<!-- Created with Inkscape (http://www.inkscape.org/) -->

<svg
   xmlns:dc="http://purl.org/dc/elements/1.1/"
   xmlns:cc="http://creativecommons.org/ns#"
   xmlns:rdf="http://www.w3.org/1999/02/22-rdf-syntax-ns#"
   xmlns:svg="http://www.w3.org/2000/svg"
   xmlns="http://www.w3.org/2000/svg"
   xmlns:xlink="http://www.w3.org/1999/xlink"
   xmlns:sodipodi="http://sodipodi.sourceforge.net/DTD/sodipodi-0.dtd"
   xmlns:inkscape="http://www.inkscape.org/namespaces/inkscape"
   width="744.09448819"
   height="1052.3622047"
   id="svg2"
   version="1.1"
   inkscape:version="0.48.3.1 r9886"
   sodipodi:docname="dividers.svg">
  <defs
     id="defs4">
    <linearGradient
       id="linearGradient4015">
      <stop
         style="stop-color:#172eb0;stop-opacity:1;"
         offset="0"
         id="stop4017" />
      <stop
         id="stop4023"
         offset="0.5"
         style="stop-color:#6371c1;stop-opacity:1;" />
      <stop
         style="stop-color:#172eb0;stop-opacity:1;"
         offset="1"
         id="stop4019" />
    </linearGradient>
    <linearGradient
       inkscape:collect="always"
       xlink:href="#linearGradient4015"
       id="linearGradient4021"
       x1="510.84555"
       y1="155.35588"
       x2="530.5"
       y2="155.35588"
       gradientUnits="userSpaceOnUse" />
  </defs>
  <sodipodi:namedview
     id="base"
     pagecolor="#ffffff"
     bordercolor="#666666"
     borderopacity="1.0"
     inkscape:pageopacity="0.0"
     inkscape:pageshadow="2"
     inkscape:zoom="11.313709"
     inkscape:cx="514.40127"
     inkscape:cy="999.29395"
     inkscape:document-units="px"
     inkscape:current-layer="layer1"
     showgrid="true"
     inkscape:window-width="1366"
     inkscape:window-height="744"
     inkscape:window-x="0"
     inkscape:window-y="24"
     inkscape:window-maximized="1"
     showguides="true"
     inkscape:snap-global="true">
    <inkscape:grid
       type="xygrid"
       id="grid3004" />
  </sodipodi:namedview>
  <metadata
     id="metadata7">
    <rdf:RDF>
      <cc:Work
         rdf:about="">
        <dc:format>image/svg+xml</dc:format>
        <dc:type
           rdf:resource="http://purl.org/dc/dcmitype/StillImage" />
        <dc:title />
      </cc:Work>
    </rdf:RDF>
  </metadata>
  <g
     inkscape:label="Layer 1"
     inkscape:groupmode="layer"
     id="layer1">
    <path
       style="fill:none;stroke:#000000;stroke-width:1px;stroke-linecap:butt;stroke-linejoin:miter;stroke-opacity:1"
       d="m 255,97.362186 0,119.999994"
       id="path3804"
       inkscape:connector-curvature="0" />
    <path
       style="fill:none;stroke:#000000;stroke-width:1px;stroke-linecap:butt;stroke-linejoin:miter;stroke-opacity:1"
       d="m 260,97.362183 0,119.999997"
       id="path3804-8"
       inkscape:connector-curvature="0" />
    <path
       style="fill:none;stroke:#000000;stroke-width:1px;stroke-linecap:butt;stroke-linejoin:miter;stroke-opacity:1"
       d="m 260,235.36218 c 0,0 -9,-6 -10,-18 l 0,-28"
       id="path3831"
       inkscape:connector-curvature="0"
       sodipodi:nodetypes="cc" />
    <path
       style="fill:none;stroke:#000000;stroke-width:0.99999976px;stroke-linecap:butt;stroke-linejoin:miter;stroke-opacity:1"
       d="m 260,235.36218 c 0,0 8.97559,-5.99999 9.9756,-17.99999 L 270,189.36218"
       id="path3831-9"
       inkscape:connector-curvature="0"
       sodipodi:nodetypes="ccc" />
    <path
       style="fill:none;stroke:#000000;stroke-width:1px;stroke-linecap:butt;stroke-linejoin:miter;stroke-opacity:1"
       d="m 275,197.36218 c 0,0 0,17 0,20 0,12 10,20 10,20 0,0 10,-8 10,-20 0,-3 0,-20 0,-20"
       id="path3875"
       inkscape:connector-curvature="0"
       sodipodi:nodetypes="cscsc" />
    <g
       id="g3913">
      <path
         sodipodi:nodetypes="cscsc"
         inkscape:connector-curvature="0"
         id="path3875-4"
         d="m 305,154.86218 c 0,0 0,54.1875 0,63.75 0,38.25 10,63.75 10,63.75 0,0 10,-25.5 10,-63.75 0,-9.5625 0,-63.75 0,-63.75"
         style="fill:none;stroke:#000000;stroke-width:1.78535712px;stroke-linecap:butt;stroke-linejoin:miter;stroke-opacity:1" />
      <path
         sodipodi:nodetypes="cscsc"
         inkscape:connector-curvature="0"
         id="path3875-4-6"
         d="m 305,154.86218 c 0,0 0,-54.1875 0,-63.750001 0,-38.249997 10,-63.749996 10,-63.749996 0,0 10,25.499999 10,63.749996 0,9.562501 0,63.750001 0,63.750001"
         style="fill:none;stroke:#000000;stroke-width:1.785357px;stroke-linecap:butt;stroke-linejoin:miter;stroke-opacity:1" />
    </g>
    <path
       style="fill:#172eb0;fill-opacity:1;fill-rule:nonzero;stroke:#000000;stroke-opacity:1"
       d="m 314.60155,277.11919 c -0.71721,-1.23802 -4.7767,-19.31576 -5.76656,-25.67966 -2.29199,-14.73543 -2.52101,-23.50402 -2.52101,-96.52008 0,-75.293928 0.20216,-82.193481 2.88468,-98.451166 1.28235,-7.771858 5.06298,-23.93477 5.76203,-24.633822 0.41182,-0.411816 4.60403,16.815305 5.80772,23.865726 2.74746,16.092833 2.86485,20.158325 2.86485,99.219262 0,79.04515 -0.1168,83.0946 -2.86187,99.21927 -0.97277,5.71412 -5.07541,22.79791 -5.60112,23.32362 -0.12883,0.12883 -0.38475,-0.0256 -0.56872,-0.34315 z"
       id="path3917"
       inkscape:connector-curvature="0" />
    <path
       style="fill:#172eb0;fill-opacity:1;fill-rule:nonzero;stroke:#000000;stroke-opacity:1"
       d="m 470.96829,277.11916 c -0.71721,-1.23802 -4.7767,-19.31576 -5.76656,-25.67966 -2.29199,-14.73543 -2.52101,-23.50402 -2.52101,-96.52008 0,-75.293921 0.20216,-82.193474 2.88468,-98.451159 1.28235,-7.771858 5.06298,-23.93477 5.76203,-24.633823 0.41182,-0.411816 4.60403,16.815306 5.80772,23.865727 C 479.88261,71.792998 480,75.85849 480,154.91942 c 0,79.04515 -0.1168,83.0946 -2.86187,99.21927 -0.97277,5.71412 -5.07541,22.79791 -5.60112,23.32362 -0.12883,0.12883 -0.38475,-0.0256 -0.56872,-0.34315 z"
       id="path3917-4"
       inkscape:connector-curvature="0" />
    <path
       style="fill:none;stroke:#000000;stroke-width:1.27475488px;stroke-linecap:butt;stroke-linejoin:miter;stroke-opacity:1"
       d="m 425,212.36218 c 0,0 0,27.625 0,32.5 0,19.5 10,32.5 10,32.5 0,0 10,-13 10,-32.5 0,-4.875 0,-32.5 0,-32.5"
       id="path3875-8"
       inkscape:connector-curvature="0"
       sodipodi:nodetypes="cscsc" />
    <path
       style="fill:none;stroke:#000000;stroke-width:1.27475488px;stroke-linecap:butt;stroke-linejoin:miter;stroke-opacity:1"
       d="m 425,98.362183 c 0,0 0,-27.625 0,-32.5 0,-19.5 10,-32.5 10,-32.5 0,0 10,13 10,32.5 0,4.875 0,32.5 0,32.5"
       id="path3875-8-4"
       inkscape:connector-curvature="0"
       sodipodi:nodetypes="cscsc" />
    <path
       style="fill:none;stroke:#000000;stroke-width:1.27475488px;stroke-linecap:butt;stroke-linejoin:miter;stroke-opacity:1"
       d="m 360,212.36218 c 0,0 0,27.625 0,32.5 0,19.5 10,32.5 10,32.5 0,0 10,-13 10,-32.5 0,-4.875 0,-32.5 0,-32.5"
       id="path3875-8-1"
       inkscape:connector-curvature="0"
       sodipodi:nodetypes="cscsc" />
    <path
       style="fill:none;stroke:#000000;stroke-width:1px;stroke-linecap:butt;stroke-linejoin:miter;stroke-opacity:1"
       d="m 425,97.362183 0,114.999997"
       id="path3991"
       inkscape:connector-curvature="0" />
    <path
       style="fill:none;stroke:#000000;stroke-width:1px;stroke-linecap:butt;stroke-linejoin:miter;stroke-opacity:1"
       d="M 445,212.36218 445,97.362183"
       id="path3993"
       inkscape:connector-curvature="0" />
    <path
       style="fill:#172eb0;fill-opacity:1;fill-rule:nonzero;stroke:#000000;stroke-width:0.34999999;stroke-linejoin:round;stroke-miterlimit:4;stroke-opacity:1;stroke-dasharray:none;stroke-dashoffset:14.99999732"
       d="m 433.77121,274.04342 c -3.01247,-5.18292 -5.49514,-11.56023 -6.68723,-17.17771 -1.30343,-6.14214 -1.20741,1.24257 -1.29394,-99.50979 -0.0536,-62.383218 0.005,-93.951488 0.17749,-95.890188 0.79255,-8.900062 3.43407,-17.307134 7.7128,-24.547315 0.62976,-1.065625 1.22791,-1.9375 1.32923,-1.9375 0.26324,0 1.71144,2.463238 3.16011,5.375 2.54147,5.108263 4.47082,11.195809 5.46711,17.25 0.56326,3.422735 0.78678,31.095975 0.78853,97.625003 0.002,65.15629 -0.23739,94.68708 -0.79352,98 -1.00106,5.96347 -2.95167,12.07908 -5.46212,17.125 -1.51848,3.05208 -2.90003,5.375 -3.19676,5.375 -0.12148,0 -0.66224,-0.75938 -1.2017,-1.6875 l 0,0 z"
       id="path3995"
       inkscape:connector-curvature="0" />
    <path
       style="fill:url(#linearGradient4021);fill-opacity:1.0;fill-rule:nonzero;stroke:#000000;stroke-width:1;stroke-linejoin:miter;stroke-miterlimit:5;stroke-opacity:1;stroke-dasharray:none;stroke-dashoffset:14.99999732000000030;stroke-linecap:butt"
       d="m 519.3459,274.04338 c -3.01247,-5.18292 -5.49514,-11.56023 -6.68723,-17.17771 -1.30343,-6.14214 -1.20741,1.24257 -1.29394,-99.50979 -0.0536,-62.383212 0.005,-93.951482 0.17749,-95.890182 0.79255,-8.900062 3.43407,-17.307134 7.7128,-24.547315 0.62976,-1.065625 1.22791,-1.9375 1.32923,-1.9375 0.26324,0 1.71144,2.463238 3.16011,5.375 2.54147,5.108263 4.47082,11.195809 5.46711,17.25 0.56326,3.422735 0.78678,31.095975 0.78853,97.624997 0.002,65.15629 -0.23739,94.68708 -0.79352,98 -1.00106,5.96347 -2.95167,12.07908 -5.46212,17.125 -1.51848,3.05208 -2.90003,5.375 -3.19676,5.375 -0.12148,0 -0.66224,-0.75938 -1.2017,-1.6875 l 0,0 z"
       id="path3995-7"
       inkscape:connector-curvature="0" />
  </g>
</svg>
